<svg xmlns="http://www.w3.org/2000/svg" viewBox="0 0 105 105" fill="none">
    <path fill="currentColor"
          d="m56.83 39.268-1.184 17.937c-.095 1.325-1.23 2.32-2.508 2.225a2.431 2.431 0 0 1-2.225-2.225L49.73 39.268c-.19-4.97 7.289-4.97 7.1 0ZM53.28 70.982c-.567 0-1.135-.19-1.656-.52a3.292 3.292 0 0 1-1.088-1.326c-.237-.52-.284-1.136-.19-1.704a2.795 2.795 0 0 1 .805-1.514c.426-.426.947-.71 1.514-.805.569-.095 1.184-.047 1.704.19.52.236.994.615 1.325 1.088.332.473.521 1.041.521 1.656 0 .805-.331 1.515-.852 2.083a2.936 2.936 0 0 1-2.082.852Z"/>
    <path fill="currentColor"
          d="M53.278 26.632c14.672 0 26.645 11.974 26.645 26.645 0 14.672-11.974 26.646-26.645 26.646-14.672 0-26.646-11.974-26.646-26.646 0-14.671 11.974-26.645 26.646-26.645Zm0-8.282c-19.31 0-34.928 15.618-34.928 34.927 0 19.31 15.618 34.928 34.928 34.928 19.31 0 34.928-15.618 34.928-34.928 0-19.31-15.666-34.927-34.928-34.927Z"/>
</svg>