<svg viewBox="0 0 105 105" fill="none" xmlns="http://www.w3.org/2000/svg">
    <path d="M63.6788 42.1416L49.4667 28.4468H55.4485L41.2788 42.1416C39.7939 43.5672 37.4606 43.524 36.0182 42.012C34.6606 40.5432 34.6606 38.2535 36.0182 36.8279L49.4667 22.3123C51.0788 20.541 53.8364 20.5842 55.4485 22.3123L68.897 36.7847C72.1212 40.284 67.0727 45.4249 63.6364 42.1416H63.6788Z"
          fill="currentColor"/>
    <path d="M49.2968 78.9485C48.7878 62.0137 48.6181 45.1221 48.7878 28.1872C48.7878 26.1136 50.4847 24.4287 52.5211 24.4287C54.5575 24.4287 56.1696 26.1136 56.212 28.1872C56.3817 45.1221 56.212 62.0137 55.7029 78.9485C55.5756 83.0527 49.4665 83.0527 49.3393 78.9485H49.2968Z"
          fill="currentColor"/>
</svg>
