<svg viewBox="0 0 105 105" fill="none" xmlns="http://www.w3.org/2000/svg">
    <path d="M41.3851 26.415C84.8938 27.215 84.85 91.1706 41.3851 91.9706C36.5166 91.7928 36.5166 84.3706 41.3851 84.1928C62.6131 83.9262 73.578 56.9928 58.578 41.7928C54.1044 37.215 47.8763 34.415 41.3851 34.1928C36.4728 33.9706 36.5166 26.6373 41.3851 26.415Z"
          fill="currentColor"/>
    <path d="M50.4639 18.5484L36.5604 33.4373V27.1706L50.4639 42.0595C51.9112 43.615 51.8674 46.0595 50.3323 47.5706C48.8411 48.9928 46.5165 48.9928 45.0691 47.5706L30.3323 33.4373C28.534 31.7484 28.5779 28.8595 30.3323 27.1706L45.0253 13.0817C48.5779 9.70393 53.7972 14.9928 50.4639 18.5928V18.5484Z"
          fill="currentColor"/>
</svg>
