<svg xmlns="http://www.w3.org/2000/svg" viewBox="0 0 106 106" fill="none">
    <path fill="currentColor"
          d="M64.72 24.398c.35 1.222.7 2.575 1.05 3.972 4.33 16.283 11.065 41.645 13.165 49.547.306 1.09-.7 2.095-1.837 1.833-3.106-.742-8.31-2.052-11.022-2.707-2.493-9.298-4.942-18.596-7.435-27.981-6.56 7.159-13.078 14.23-19.595 21.346-3.673-.917-7.347-1.79-11.021-2.706-1.137-.262-1.531-1.66-.744-2.532 12.465-13.62 24.887-27.109 37.44-40.772Zm0-7.64a7.67 7.67 0 0 0-5.642 2.489l-10.76 11.742-28.472 30.907c-1.837 2.008-2.45 4.802-1.706 7.377.787 2.576 2.887 4.584 5.511 5.195l11.547 2.837 1.968.48a8.792 8.792 0 0 0 1.837.219 7.67 7.67 0 0 0 5.642-2.488L54.792 64.47v.131l3.849 14.406a7.572 7.572 0 0 0 5.554 5.456l13.471 3.318c.613.175 1.225.218 1.881.218a7.55 7.55 0 0 0 5.423-2.27c3.106-3.099 2.58-5.15.525-12.746L81.952 59.67l-8.878-33.308-1.05-3.972a7.572 7.572 0 0 0-5.554-5.457 8.792 8.792 0 0 0-1.837-.218l.087.044Z"/>
</svg>