<svg viewBox="0 0 828 200" fill="none" xmlns="http://www.w3.org/2000/svg">
    <path d="M322.73 51.5532C316.06 51.5532 302.529 53.2033 296.708 54.7234C276.077 60.1337 265.366 72.1745 266.837 88.3055C267.737 98.0761 273.077 105.497 282.858 110.487C292.168 115.247 301.119 117.677 318.09 120.087C342.501 123.538 348.932 125.138 350.982 128.298C352.462 130.538 351.322 133.078 348.032 134.928C339.381 139.789 313.089 138.909 291.228 133.018C283.028 130.758 274.527 127.038 266.917 123.588V151.589L269.437 152.499C278.137 155.67 300.329 160.22 313.039 161.43C321.23 162.21 336.761 162.23 343.381 161.48C359.502 159.65 373.313 153.22 379.964 144.469C388.224 133.568 387.544 117.537 378.444 108.987C370.463 101.486 357.742 97.406 332.311 94.1958C311.329 91.5357 303.019 89.4155 301.359 86.3554C299.359 82.5951 302.139 79.2149 308.709 77.3848C312.159 76.4247 315.14 76.1947 323.77 76.2147C340.851 76.2347 356.352 79.0049 369.583 84.4352C372.943 85.7953 375.873 86.9354 376.123 86.9354L376.553 62.3139L374.813 61.4138C365.343 56.5535 338.971 51.5532 322.75 51.5332H322.73V51.5532ZM388.004 59.0337V83.5152L427.497 83.8252L427.897 158.34H458.218L458.508 83.8252L498.011 83.5152V59.0337H388.004ZM622.779 51.5532C580.556 51.5532 553.284 73.2245 553.284 106.757C553.284 140.289 580.556 162.1 622.779 162.1C665.001 162.1 692.463 140.379 692.463 106.757C692.463 73.1345 665.121 51.5532 622.779 51.5532ZM622.779 136.878C601.957 136.878 589.527 125.618 589.527 106.757C589.527 87.8954 601.957 76.6348 622.779 76.6348C643.6 76.6348 656.241 87.8954 656.241 106.757C656.241 125.618 643.72 136.878 622.779 136.878ZM792.129 59.0337V112.667L736.136 59.0337H700.744V157.91H736.256V101.426L795.869 157.91H827.791V59.0337H792.119H792.129ZM509.492 59.0337H545.004V157.9H509.492V59.0337ZM101.306 106.477C111.617 102.076 117.647 94.6359 117.647 85.6853C117.647 69.3743 99.0661 59.2437 69.1343 59.2437H0V158.13H72.9245C103.386 158.13 123.078 147.069 123.078 129.948C123.078 119.207 115.287 110.947 101.296 106.487L101.306 106.477ZM64.434 98.7161H35.5022V80.095H64.074C72.9845 80.095 81.9651 82.9351 81.9651 89.2655C81.9651 95.5959 73.1545 98.7061 64.434 98.7061V98.7161ZM35.5022 117.047H67.3242C78.9949 117.047 86.8554 121.068 86.8554 127.028C86.8554 132.988 78.9949 137.139 67.3242 137.139H35.5022V117.057V117.047ZM154.77 114.517C170.971 96.846 187.182 79.1549 203.493 61.3938C209.683 84.7053 215.873 107.907 222.034 131.048C231.984 133.488 255.566 139.289 255.576 139.289C255.596 139.309 234.095 58.3336 221.214 9.87061C220.284 6.40039 219.404 3.11019 218.594 0.00999451C185.982 35.5622 153.7 70.7444 121.158 106.247C132.378 109.007 143.589 111.767 154.78 114.527L154.77 114.517ZM242.455 197.592C254.196 200.412 265.936 200.692 277.127 198.812C273.577 198.432 270.027 197.842 266.477 196.982C227.304 187.572 201.773 150.999 205.053 112.057L176.441 105.197C172.411 147.489 199.972 187.382 242.475 197.592H242.455Z"
          fill="currentColor"/>
</svg>
