<svg xmlns="http://www.w3.org/2000/svg" viewBox="0 0 105 105" fill="none">
    <path fill="#2FD38F"
          d="M78.686 39.182H19.571c-1.44 0-2.576 1.266-2.576 2.837v22.005c0 1.572 1.135 2.838 2.576 2.838h59.115c1.441 0 2.576-1.266 2.576-2.838V42.02c0-1.572-1.135-2.838-2.576-2.838Z"/>
    <path fill="currentColor"
          d="M103.136 45.385a52.728 52.728 0 0 1 0 15.28c-.611 3.624-5.981 3.58-6.55 0a52.714 52.714 0 0 1 0-15.28c.307-1.79 2.053-3.013 3.843-2.707a3.398 3.398 0 0 1 2.707 2.707ZM79.44 33.55l-58.56.306H17.3c-2.663.131-4.977 2.314-5.282 4.934-.088.699 0 4.279 0 5.152v22.441c-.175 3.23 2.488 5.938 5.588 5.894 2.882-.305 64.922 1.048 65.708-.262 2.358-1.179 3.58-3.274 3.45-6.069V39.751c.13-3.45-2.751-6.287-6.026-6.2h-1.297Zm1.228-6.854c6.626 0 13.08 6.287 12.731 13.055l-.043 14.975v7.466c-.131 2.663.393 5.72-.655 8.513-1.572 4.89-6.33 8.514-11.483 8.689l-3.885.043-59.814.262c-7.073.219-13.404-6.374-13.098-13.36l-.044-14.975v-11.22c-.218-5.065 2.838-10.391 7.553-12.487 2.533-1.397 4.88-1.24 7.717-1.24l59.504.28h1.517Z"/>
</svg>