<svg xmlns="http://www.w3.org/2000/svg" viewBox="0 0 105 105" fill="none">
    <path fill="#2FD38F"
          d="M22.418 40.682c-.222-.888-1.083-1.387-1.998-1.387s-1.776.5-1.997 1.387c-.106.424-.186.92-.186 1.45v22.005c0 .531.08 1.027.186 1.451.221.888 1.082 1.387 1.997 1.387s1.776-.5 1.998-1.387c.105-.424.185-.92.185-1.45V42.132c0-.53-.08-1.027-.185-1.45Z"/>
    <path fill="currentColor"
          d="M103.909 45.191a52.728 52.728 0 0 1 0 15.281c-.611 3.624-5.982 3.58-6.55 0a52.714 52.714 0 0 1 0-15.28c.306-1.79 2.053-3.013 3.843-2.708a3.398 3.398 0 0 1 2.707 2.707ZM81.468 33.36l-59.814.305h-3.58c-2.663.131-4.977 2.314-5.283 4.934-.087.699 0 4.279 0 5.152v22.44c-.175 3.232 2.489 5.939 5.589 5.895 2.881-.306 64.922 1.048 65.708-.262 2.357-1.179 3.58-3.275 3.449-6.069V39.56c.13-3.449-2.751-6.287-6.025-6.2h-.044Zm0-6.811c6.898-.175 13.054 6.243 12.705 13.01l-.044 14.976V62c-.13 2.663.393 5.719-.655 8.513-1.571 4.89-6.33 8.514-11.482 8.689l-3.886.043-59.814.262c-7.073.218-13.403-6.374-13.098-13.36l-.043-14.975v-11.22c-.219-5.065 2.838-10.392 7.553-12.487 2.532-1.397 6.112-1.266 8.95-1.266l59.814.305v.044Z"/>
</svg>