<svg xmlns="http://www.w3.org/2000/svg" viewBox="0 0 105 105" fill="none">
    <path fill="currentColor"
          d="M22.418 41.455c-.222-.888-1.083-1.388-1.998-1.388s-1.776.5-1.997 1.388c-.106.424-.186.92-.186 1.45V64.91c0 .53.08 1.026.186 1.45.221.888 1.082 1.388 1.997 1.388s1.776-.5 1.998-1.388c.105-.424.185-.92.185-1.45V42.905c0-.53-.08-1.026-.185-1.45ZM103.909 45.964a52.728 52.728 0 0 1 0 15.28c-.611 3.624-5.982 3.58-6.55 0a52.714 52.714 0 0 1 0-15.28c.306-1.79 2.053-3.013 3.843-2.707a3.398 3.398 0 0 1 2.707 2.707Z"/>
    <path fill="currentColor"
          d="m81.468 34.132-59.814.306h-3.58c-2.663.13-4.977 2.314-5.283 4.933-.087.699 0 4.279 0 5.152v22.441c-.175 3.231 2.489 5.938 5.589 5.894 2.881-.305 64.922 1.048 65.708-.261 2.357-1.18 3.58-3.275 3.449-6.07V40.333c.13-3.45-2.751-6.287-6.025-6.2h-.044Zm0-6.81c6.898-.175 13.054 6.243 12.705 13.01l-.044 14.975v7.466c-.13 2.663.393 5.72-.655 8.514-1.571 4.89-6.33 8.513-11.482 8.688l-3.886.044-59.814.262c-7.073.218-13.403-6.375-13.098-13.36l-.043-14.976v-11.22c-.219-5.065 2.838-10.391 7.553-12.487 2.532-1.397 6.112-1.266 8.95-1.266l59.814.306v.043Z"/>
</svg>