<svg xmlns="http://www.w3.org/2000/svg" viewBox="0 0 105 105" fill="none">
    <path fill="currentColor"
          d="M47.439 39.765H20.457c-1.441 0-2.576 1.266-2.576 2.837v22.005c0 1.572 1.135 2.838 2.576 2.838h26.981c1.441 0 2.576-1.266 2.576-2.838V42.603c0-1.572-1.135-2.838-2.576-2.838ZM104.022 45.964a52.728 52.728 0 0 1 0 15.28c-.612 3.624-5.982 3.58-6.55 0a52.714 52.714 0 0 1 0-15.28c.306-1.79 2.053-3.013 3.843-2.707a3.398 3.398 0 0 1 2.707 2.707Z"/>
    <path fill="currentColor"
          d="m81.58 34.132-59.813.306h-3.58c-2.664.13-4.978 2.314-5.283 4.933-.087.699 0 4.279 0 5.152v22.441c-.175 3.231 2.489 5.938 5.588 5.894 2.882-.305 64.922 1.048 65.708-.261 2.358-1.18 3.58-3.275 3.45-6.07V40.333c.13-3.45-2.751-6.287-6.026-6.2h-.043Zm0-6.81c6.899-.175 13.055 6.243 12.706 13.01l-.044 14.975v7.466c-.13 2.663.393 5.72-.655 8.514-1.572 4.89-6.33 8.513-11.482 8.688l-3.886.044-59.814.262c-7.073.218-13.404-6.375-13.098-13.36l-.044-14.976v-11.22c-.218-5.065 2.838-10.391 7.554-12.487 2.532-1.397 6.112-1.266 8.95-1.266l59.814.306v.043Z"/>
</svg>