<svg xmlns="http://www.w3.org/2000/svg" viewBox="0 0 105 105" fill="none">
    <path fill="currentColor"
          d="M78.686 39.738H19.571c-1.44 0-2.576 1.266-2.576 2.838v22.005c0 1.571 1.135 2.838 2.576 2.838h59.115c1.441 0 2.576-1.267 2.576-2.838V42.576c0-1.572-1.135-2.838-2.576-2.838ZM103.136 45.941a52.728 52.728 0 0 1 0 15.281c-.611 3.624-5.981 3.58-6.55 0a52.714 52.714 0 0 1 0-15.28c.307-1.79 2.053-3.013 3.843-2.708a3.398 3.398 0 0 1 2.707 2.707Z"/>
    <path fill="currentColor"
          d="m79.44 34.108-58.56.305H17.3c-2.663.131-4.977 2.314-5.282 4.934-.088.698 0 4.278 0 5.151V66.94c-.175 3.23 2.488 5.937 5.588 5.894 2.882-.306 64.922 1.048 65.708-.262 2.358-1.18 3.58-3.275 3.45-6.069V40.307c.13-3.449-2.751-6.287-6.026-6.2h-1.297Zm1.228-6.855c6.626 0 13.08 6.287 12.731 13.054l-.043 14.975v7.466c-.131 2.664.393 5.72-.655 8.514-1.572 4.89-6.33 8.514-11.483 8.688l-3.885.044-59.814.262c-7.073.218-13.404-6.374-13.098-13.36l-.044-14.975V40.7c-.218-5.065 2.838-10.392 7.553-12.488 2.533-1.397 4.88-1.24 7.717-1.24l59.504.28h1.517Z"/>
</svg>