<svg xmlns="http://www.w3.org/2000/svg" viewBox="0 0 105 105" fill="none">
    <path fill="currentColor"
          d="M104.022 45.385a52.728 52.728 0 0 1 0 15.28c-.611 3.624-5.981 3.58-6.549 0a52.707 52.707 0 0 1 0-15.28c.306-1.79 2.052-3.013 3.842-2.707a3.398 3.398 0 0 1 2.707 2.707ZM80.327 33.55l-58.56.306h-3.58c-2.664.131-4.978 2.314-5.283 4.934-.087.699 0 4.279 0 5.152v22.441c-.175 3.23 2.489 5.938 5.588 5.894 2.882-.305 64.922 1.048 65.708-.262 2.358-1.179 3.58-3.274 3.45-6.069V39.751c.13-3.45-2.751-6.287-6.026-6.2h-1.297Zm1.228-6.854c6.625 0 13.08 6.287 12.73 13.055l-.043 14.975v7.466c-.13 2.663.393 5.72-.655 8.513-1.572 4.89-6.33 8.514-11.482 8.689l-3.886.043-59.814.262c-7.073.219-13.404-6.374-13.098-13.36l-.044-14.975v-11.22c-.218-5.065 2.838-10.391 7.554-12.487 2.532-1.397 4.878-1.24 7.716-1.24l59.504.28h1.518Z"/>
    <path fill="#2FD38F"
          d="M47.439 39.51H20.457c-1.44 0-2.576 1.266-2.576 2.838v22.004c0 1.572 1.136 2.838 2.576 2.838H47.44c1.44 0 2.576-1.266 2.576-2.838V42.348c0-1.572-1.135-2.838-2.576-2.838Z"/>
</svg>