<svg xmlns="http://www.w3.org/2000/svg" viewBox="0 0 105 105" fill="none">
    <path fill="currentColor"
          d="M90.104 33.525a9.382 9.382 0 0 0-3.223-3.222l-26.31-15.318c-3.531-2.075-8.078-2.075-11.61 0L22.609 30.303a9.65 9.65 0 0 0-3.179 3.222 8.45 8.45 0 0 0-1.192 4.37v29.621c0 1.501.398 3.046 1.192 4.37a9.65 9.65 0 0 0 3.179 3.223l26.354 15.318c1.765 1.015 3.752 1.59 5.782 1.59 2.031 0 4.018-.575 5.783-1.59L86.881 75.11a9.65 9.65 0 0 0 3.179-3.222c.794-1.325 1.148-2.826 1.148-4.37V37.895a8.85 8.85 0 0 0-1.148-4.37h.044ZM52.228 20.591c.795-.441 1.678-.706 2.56-.706.884 0 1.766.265 2.561.706L77.39 32.245c1.855 1.06 1.855 3.708 0 4.812L56.201 49.505a2.71 2.71 0 0 1-2.825 0l-21.19-12.492c-1.81-1.06-1.81-3.708 0-4.812l20.042-11.61ZM25.874 69.46a2.388 2.388 0 0 1-.794-.84 2.188 2.188 0 0 1-.353-1.147v-22.47c0-2.162 2.34-3.487 4.193-2.383l21.234 12.493a2.78 2.78 0 0 1 1.368 2.384v22.072c0 2.163-2.34 3.487-4.194 2.383L25.874 69.46Zm58.933-1.987c0 .398-.089.795-.31 1.148-.176.353-.485.618-.794.839L62.205 81.95c-1.854 1.06-4.194-.264-4.194-2.383V57.496c0-.972.53-1.899 1.369-2.384l21.233-12.493c1.854-1.104 4.194.265 4.194 2.384v22.513-.044Z"/>
</svg>