<svg xmlns="http://www.w3.org/2000/svg" viewBox="0 0 105 105" width="105" height="105" fill="none">
    <path fill="currentColor"
          d="m25.38 70.14 1.097 12.374c.22 2.414-1.58 4.564-3.993 4.784-2.72.263-5.047-2.063-4.783-4.784l1.097-12.375c.35-3.95 6.275-3.906 6.582 0ZM40.87 57.765l1.098 24.75c.131 6.012-8.909 6.012-8.777 0l1.097-24.75c.176-4.125 6.407-4.125 6.583 0ZM56.364 45.348l1.097 37.126c.088 2.413-1.843 4.432-4.257 4.52-2.501.088-4.608-2.019-4.52-4.52l1.097-37.126c.132-4.169 6.451-4.169 6.583 0ZM71.81 32.97l1.098 49.5c0 5.881-8.777 5.925-8.777 0l1.097-49.5c.088-4.213 6.495-4.213 6.583 0ZM87.298 20.596l1.097 61.92c0 5.749-8.557 5.924-8.776.175l1.097-62.051c.088-4.213 6.495-4.257 6.582 0v-.044Z"/>
</svg>