<svg xmlns="http://www.w3.org/2000/svg" viewBox="0 0 105 105" fill="none">
    <path fill="currentColor"
          d="m86.814 33.402-32.609 34.36c-1.703 1.94-4.78 1.94-6.53 0L33.333 51.67c-1.23-1.372-1.089-3.502.284-4.733 1.278-1.135 3.218-1.135 4.449 0l16.091 14.34h-6.531L82.08 28.67c3.077-2.934 7.667 1.61 4.733 4.733Z"/>
    <path fill="currentColor"
          d="M52.835 26.632c14.671 0 26.645 11.974 26.645 26.645 0 14.672-11.974 26.646-26.645 26.646-14.672 0-26.646-11.974-26.646-26.646 0-14.671 11.974-26.645 26.646-26.645Zm0-8.282c-19.31 0-34.928 15.618-34.928 34.927 0 19.31 15.618 34.928 34.928 34.928 19.31 0 34.927-15.618 34.927-34.928 0-19.31-15.665-34.927-34.927-34.927Z"/>
</svg>