<svg xmlns="http://www.w3.org/2000/svg" viewBox="0 0 105 105" fill="none">
    <path fill="currentColor"
          d="M70.49 77.475c-2.685 0-5.328-.62-7.764-1.817-5.493 2.23-12.018 2.395-17.717.33a19.165 19.165 0 0 1-7.475 1.487C26.755 77.475 18 68.72 18 57.94c0-9.003 6.277-16.85 14.909-18.956A24.73 24.73 0 0 1 53.434 28c10.2 0 19.203 6.153 22.961 15.528C83.21 45.965 88 52.614 88 60.006c0 9.622-7.847 17.469-17.51 17.469Zm-7.6-9.457c.662 0 1.364.206 1.942.578a10.625 10.625 0 0 0 5.658 1.652c5.699 0 10.283-4.584 10.283-10.242 0-4.75-3.345-8.962-7.97-9.994-1.24-.29-2.272-1.198-2.644-2.437-2.312-7.35-9.044-12.307-16.725-12.307-6.236 0-12.06 3.387-15.157 8.797-.537.95-1.528 1.61-2.602 1.776-5.946.867-10.448 6.112-10.448 12.141 0 6.773 5.534 12.307 12.307 12.307 2.023 0 3.965-.496 5.658-1.404a3.589 3.589 0 0 1 3.18-.124c4.666 2.106 10.365 1.941 14.867-.33a3.726 3.726 0 0 1 1.652-.372v-.041Z"/>
</svg>