<svg xmlns="http://www.w3.org/2000/svg" viewBox="0 0 105 105" fill="none">
    <path fill="currentColor"
          d="M60.694 51.66 40.15 40.146c-3.644-2.06-.687-7.658 3.063-5.863l21.126 10.352c4.754 2.377 1.004 9.613-3.696 7.025h.052ZM46.434 62.177l14.471-7.394c4.648-2.324 8.24 4.7 3.591 7.077-.105 0-.21.106-.316.159l-15 6.18c-3.855 1.584-6.443-4.12-2.746-5.969v-.053Z"/>
    <path fill="currentColor"
          d="M32.332 46.327c-7.712 0-13.997-6.285-13.997-13.996s6.285-13.996 13.996-13.996c7.712 0 13.997 6.285 13.997 13.996S40.043 46.327 32.33 46.327Zm0-20.07c-3.328 0-6.074 2.747-6.074 6.074s2.746 6.074 6.073 6.074c3.328 0 6.074-2.747 6.074-6.074s-2.746-6.074-6.074-6.074ZM71.682 67.184c-7.711 0-13.997-6.285-13.997-13.996 0-7.712 6.286-13.997 13.997-13.997 7.71 0 13.996 6.285 13.996 13.996 0 7.712-6.285 13.997-13.996 13.997Zm0-20.07c-3.328 0-6.074 2.746-6.074 6.074 0 3.327 2.746 6.073 6.074 6.073 3.327 0 6.073-2.746 6.073-6.074 0-3.327-2.746-6.073-6.073-6.073ZM37.774 83.825c-7.71 0-13.996-6.285-13.996-13.996s6.285-13.996 13.996-13.996c7.712 0 13.996 6.285 13.996 13.996s-6.285 13.996-13.996 13.996Zm0-20.07c-3.327 0-6.073 2.694-6.073 6.074s2.746 6.074 6.073 6.074c3.328 0 6.074-2.747 6.074-6.074s-2.746-6.074-6.074-6.074Z"/>
</svg>