<svg xmlns="http://www.w3.org/2000/svg" viewBox="0 0 105 105" fill="none">
    <path fill="currentColor"
          d="M68.123 52.846c-1.469 23.59-35.206 24.657-33.915-.579 2.091-23.723 35.072-24.746 33.915.579Zm-7.745-.668c.312-13.708-16.601-11.928-17.313.846-1.069 13.797 16.601 11.572 17.313-.846Z"/>
    <path fill="currentColor"
          d="M65.496 84.314c-18.427 8.5-43.53-1.647-46.912-22.655C12.22 29.39 52.144 4.42 78.092 24.895c11.66 10.059 14.331 30.444 3.07 41.927-4.45 4.317-12.862 5.34-17.358.311-4.85-5.118-3.56-12.017-3.293-15.8l1.157-13.397c.534-5.074 8.1-4.45 7.745.668 0 0-1.247 13.397-1.202 13.397-3.027 16.557 10.904 12.684 12.195-.445C84.68 22.046 45.2 16.572 30.913 37.669c-17.136 23.767 5.03 51.407 32.001 40.503 4.05-1.736 6.677 4.45 2.582 6.142Z"/>
</svg>