<svg viewBox="0 0 105 105" fill="none" xmlns="http://www.w3.org/2000/svg">
    <path d="M41.8495 64.4493C49.6333 63.6888 57.4171 63.6888 65.1562 64.4493C69.7191 64.9413 69.6743 71.7857 65.1562 72.2778C57.3724 73.0383 49.5886 73.0383 41.8495 72.2778C39.7023 72.0094 38.1366 70.0411 38.405 67.8938C38.6286 66.0597 40.1049 64.6729 41.8495 64.4493Z"
          fill="currentColor"/>
    <path d="M62.9194 27.6354C63.7247 37.3875 64.9325 38.2822 74.5504 39.1321C78.1292 39.49 78.487 44.9476 75.0425 45.7976C61.6221 49.9579 52.049 40.4294 56.254 26.9644C57.2382 23.3409 62.6958 23.9672 62.9194 27.6354Z"
          fill="currentColor"/>
    <path d="M61.9795 87.7568H44.9805C33.3942 87.7568 24 78.3179 24 66.7764V39.9805C24 28.439 33.439 19 44.9805 19H61.9795C73.5658 19 82.96 28.439 82.96 39.9805V66.7317C82.96 78.3179 73.521 87.7121 61.9795 87.7121V87.7568ZM44.9805 26.8285C37.7335 26.8285 31.8285 32.7335 31.8285 39.9805V66.7317C31.8285 73.9786 37.7335 79.8836 44.9805 79.8836H61.9795C69.2265 79.8836 75.1315 73.9786 75.1315 66.7317V39.9805C75.1315 32.7335 69.2265 26.8285 61.9795 26.8285H44.9805Z"
          fill="currentColor"/>
</svg>
