<svg xmlns="http://www.w3.org/2000/svg" viewBox="0 0 105 105" fill="none">
    <path fill="currentColor"
          d="M63.36 18.677 27.954 62.485l-2.463-5.168 20.672-1.063c2.222-.096 4.154 1.594 4.25 3.864.387-.434-3.235 15.167-3.235 15.36-.725 3.236-2.029 9.225-2.754 12.413l-.193.87V89s0-1.062-.193-1.496c-.676-2.126-3.864-2.174-4.782-.773.145-.193.677-.821.822-1.014 4.54-5.603 12.075-14.974 16.711-20.625l17.823-22.025 2.463 5.169-20.624 1.062c-2.222.097-4.154-1.594-4.25-3.864-.387.29 3.236-15.021 3.236-15.311.724-3.188 2.029-9.225 2.753-12.413l.193-.87V16.6c-.483 2.753 3.381 4.395 5.023 2.125l-.048-.048Zm-5.024-3.864c2.222-2.995 7.197-.725 6.327 2.946-.531 3.623-1.449 9.853-1.98 13.524l-2.125 14.442-4.154-4.975s20.672.966 20.817 1.063c2.512.048 3.912 3.284 2.319 5.168L61.765 68.957c-5.071 6.231-12.654 15.65-17.678 21.832-2.27 2.753-6.955.483-6.23-2.946.241-1.69.724-4.782.966-6.52.628-4.541 2.463-16.906 3.14-21.591l4.153 4.975-20.672-1.063c-2.609.049-4.154-3.187-2.464-5.168l35.308-43.663h.048Z"/>
</svg>