<svg xmlns="http://www.w3.org/2000/svg" viewBox="0 0 105 105" fill="none">
    <path fill="currentColor"
          d="M32.198 67.04c-1.074 0-2.148-.122-3.139-.326-.413-.081-.826-.163-1.239-.326a8.07 8.07 0 0 1-1.817-.694c-.867-.327-1.776-.857-2.684-1.51-.62-.408-1.198-.94-1.57-1.306-.33-.245-.66-.572-.867-.94-1.404-1.469-2.478-3.305-3.139-5.265a10.629 10.629 0 0 1-.33-1.224 8.917 8.917 0 0 1-.33-1.878c0-.53-.083-1.06-.083-1.55s0-1.021.083-1.51c.082-.695.165-1.348.371-2 .042-.368.165-.776.33-1.184.62-1.96 1.694-3.756 3.18-5.347.166-.245.496-.572.868-.898.413-.409.95-.858 1.528-1.225a11.79 11.79 0 0 1 2.684-1.51c.62-.327 1.24-.53 1.859-.694.33-.122.743-.245 1.156-.326.95-.205 2.024-.327 3.097-.327 1.157 0 2.23.122 3.18.367.372.082.785.164 1.198.286.62.163 1.239.367 1.817.694 1.032.449 1.9.98 2.684 1.551a8.045 8.045 0 0 1 1.57 1.306c.248.204.537.49.826.816 1.363 1.47 2.478 3.347 3.138 5.347.124.327.248.735.33 1.184.166.571.29 1.224.331 1.918 0 .531.083 1.062.083 1.551 0 .49 0 1.02-.083 1.51-.082.694-.165 1.348-.372 2a4.393 4.393 0 0 1-.33 1.143c-.62 1.96-1.734 3.837-3.139 5.347-.206.286-.537.572-.867.817-.372.408-.908.857-1.528 1.265-.743.572-1.652 1.102-2.684 1.551-.537.286-1.198.49-1.859.694-.371.122-.784.204-1.197.286-.909.245-1.983.367-3.139.367l.083.04Zm0-23.06c-.95 0-1.859.163-2.685.449-.413.163-.784.285-1.032.449-.207.122-.372.204-.496.285-.413.245-.66.45-1.032.776a8.035 8.035 0 0 0-2.767 4.612c-.041.367-.083.816-.124 1.224v.613c0 .367.082.775.124 1.183a8.065 8.065 0 0 0 2.767 4.572c.372.326.66.53.908.694.248.163.413.285.578.367.33.163.661.327 1.074.45.867.326 1.735.448 2.685.448s1.858-.163 2.725-.449c.372-.122.702-.286 1.033-.449.206-.082.33-.204.495-.326.372-.205.62-.409.992-.735 1.445-1.184 2.395-2.857 2.766-4.653.042-.368.083-.776.124-1.184v-.612c0-.367-.082-.735-.124-1.143a8.034 8.034 0 0 0-2.767-4.612 7.859 7.859 0 0 0-.908-.694c-.29-.163-.454-.286-.578-.367a6.002 6.002 0 0 0-1.074-.45c-.867-.326-1.776-.448-2.726-.448h.042ZM71.802 67.04c-1.074 0-2.147-.122-3.139-.326-.412-.081-.825-.163-1.238-.326a8.07 8.07 0 0 1-1.818-.694c-.867-.327-1.775-.857-2.684-1.51-.62-.408-1.198-.94-1.57-1.306-.33-.245-.66-.572-.867-.94-1.404-1.469-2.477-3.305-3.138-5.265a10.629 10.629 0 0 1-.33-1.224 8.917 8.917 0 0 1-.33-1.878c0-.53-.084-1.06-.084-1.55s0-1.021.083-1.51c.083-.695.165-1.348.372-2 .041-.368.165-.776.33-1.184.62-1.96 1.693-3.756 3.18-5.347.165-.245.496-.572.867-.898.413-.409.95-.858 1.528-1.225a11.79 11.79 0 0 1 2.685-1.51c.62-.327 1.239-.53 1.858-.694.33-.122.743-.245 1.156-.326.95-.205 2.024-.327 3.098-.327 1.156 0 2.23.122 3.18.367.371.082.784.164 1.197.286.62.163 1.24.367 1.817.694 1.033.449 1.9.98 2.685 1.551a8.045 8.045 0 0 1 1.57 1.306c.247.204.536.49.825.816 1.363 1.47 2.478 3.347 3.139 5.347.124.327.248.735.33 1.184.165.571.29 1.224.33 1.918 0 .531.083 1.062.083 1.551 0 .49 0 1.02-.082 1.51-.083.694-.166 1.348-.372 2a4.393 4.393 0 0 1-.33 1.143c-.62 1.96-1.735 3.837-3.14 5.347-.206.286-.536.572-.866.817-.372.408-.909.857-1.528 1.265-.744.572-1.652 1.102-2.685 1.551-.537.286-1.197.49-1.858.694-.372.122-.785.204-1.198.286-.908.245-1.982.367-3.139.367l.083.04Zm0-23.06c-.95 0-1.858.163-2.684.449-.413.163-.785.285-1.033.449-.206.122-.371.204-.495.285-.413.245-.661.45-1.033.776a8.035 8.035 0 0 0-2.767 4.612c-.041.367-.082.816-.124 1.224v.613c0 .367.083.775.124 1.183a8.065 8.065 0 0 0 2.767 4.572c.372.326.661.53.909.694.248.163.413.285.578.367.33.163.66.327 1.074.45.867.326 1.734.448 2.684.448.95 0 1.858-.163 2.726-.449.371-.122.702-.286 1.032-.449.207-.082.33-.204.496-.326.371-.205.62-.409.991-.735 1.445-1.184 2.395-2.857 2.767-4.653.041-.368.083-.776.124-1.184v-.612c0-.367-.083-.735-.124-1.143a8.035 8.035 0 0 0-2.767-4.612 7.859 7.859 0 0 0-.909-.694c-.289-.163-.454-.286-.578-.367a5.998 5.998 0 0 0-1.073-.45c-.868-.326-1.776-.448-2.726-.448h.041Z"/>
    <path fill="currentColor"
          d="M59.496 49.45c-6.897-5.797-8.26-5.552-15.115.08-2.602 2.082-6.36-1.183-4.667-3.958 6.03-11.347 18.502-11.347 24.572 0 1.694 2.98-2.23 6.081-4.79 3.877Z"/>
</svg>