<svg xmlns="http://www.w3.org/2000/svg" viewBox="0 0 105 105" fill="none">
    <path fill="currentColor"
          d="M52.234 17.464C67.892 17.464 78 27.572 78 43.186c0 15.615-15.012 34.584-21.507 42.155-.473.602-1.162 1.118-1.936 1.462-1.42.688-3.226.688-4.689 0-.688-.3-1.333-.817-1.892-1.42-6.452-7.57-21.507-26.797-21.507-42.11 0-15.314 10.108-25.723 25.722-25.723l.043-.086ZM49.31 75.017a3.63 3.63 0 0 0 5.807 0c8.044-10.41 15.313-22.97 15.313-31.83 0-11.4-6.796-18.196-18.238-18.196s-18.195 6.797-18.195 18.195c0 8.861 7.27 21.422 15.313 31.831Z"/>
    <path stroke="currentColor" stroke-width="6"
          d="M52.38 53.76c5.733 0 10.38-4.647 10.38-10.38 0-5.733-4.647-10.38-10.38-10.38C46.647 33 42 37.647 42 43.38c0 5.733 4.647 10.38 10.38 10.38Z"/>
</svg>