<svg xmlns="http://www.w3.org/2000/svg" viewBox="0 0 105 105" fill="none">
    <path fill="currentColor"
          d="M26.509 39.644c0-.883-.169-5.808-.169-6.607-.252-4.588 3.03-9.133 7.534-10.312 3.03-.673 4.335-.294 6.187-.463l21.212-.294 10.564-.127c2.357-.126 5.555.8 7.575 2.652 2.147 1.852 3.536 4.545 3.746 7.323l.126 21.549-.126 21.549c-.252 5.64-5.976 10.437-11.321 10.016-6.692 0-24.832-.294-31.776-.378-1.852-.169-3.157.21-6.187-.463-4.503-1.179-7.786-5.724-7.534-10.312.042-.8.127-5.724.169-6.608.126-4.04 6.187-3.998 6.313 0l.126 5.304c-.126 2.104.42 4.293 2.736 4.797.42.169 2.735 0 4.377 0l21.17-.294 10.606-.084c1.936.084 2.946-1.137 3.114-2.568l-.084-20.833.084-20.833c-.168-1.431-1.22-2.652-3.114-2.567-6.692 0-24.832-.295-31.776-.38-3.704-.167-6.818-.546-7.07 3.452 0 .8-.17 5.724-.17 6.608-.083 4.04-6.228 3.998-6.312 0v-.127Z"/>
    <path fill="currentColor"
          d="m43.554 64.52 13.342-14.1v5.935l-13.342-14.1a3.71 3.71 0 0 1 .127-5.219c1.43-1.346 3.661-1.346 5.05 0l14.1 13.342c1.725 1.6 1.683 4.335 0 5.935l-14.1 13.341c-3.41 3.199-8.418-1.81-5.219-5.219l.042.084Z"/>
    <path fill="currentColor"
          d="M7.694 50.253a1211.05 1211.05 0 0 1 49.453-.505c2.02 0 3.661 1.683 3.661 3.703 0 2.02-1.641 3.62-3.661 3.662-16.499.168-32.955 0-49.453-.505-3.998-.126-3.998-6.187 0-6.313v-.042Z"/>
</svg>