<svg xmlns="http://www.w3.org/2000/svg" viewBox="0 0 105 105" fill="none">
    <path fill="currentColor"
          d="M75.012 65.139c0 .884.168 5.808.168 6.608.253 4.587-3.03 9.132-7.533 10.31-3.03.674-4.335.296-6.187.464l-21.212.294-6.198.127c-2.357.126-5.556-.8-7.576-2.652-2.146-1.852-3.535-4.545-3.746-7.323l-.126-21.549.126-21.548c.253-5.64 5.977-10.438 11.322-10.017 6.692 0 20.465.294 27.41.379 1.852.168 3.156-.21 6.187.463 4.503 1.178 7.786 5.723 7.533 10.311-.042.8-.126 5.724-.168 6.608-.126 4.04-6.187 3.998-6.313 0l-.126-5.303c.126-2.105-.421-4.293-2.736-4.798-.421-.169-2.736 0-4.377 0l-21.17.294-6.24.085c-1.936-.085-2.946 1.136-3.115 2.567l.085 20.833-.085 20.833c.169 1.431 1.22 2.652 3.115 2.568 6.692 0 20.465.294 27.41.378 3.703.169 6.818.547 7.07-3.45 0-.8.169-5.725.169-6.608.084-4.04 6.229-3.999 6.313 0v.126ZM80.428 62.598l13.342-14.1v5.935l-13.342-14.1a3.71 3.71 0 0 1 .127-5.218c1.43-1.347 3.661-1.347 5.05 0l14.1 13.341c1.725 1.6 1.683 4.335 0 5.935l-14.1 13.341c-3.41 3.199-8.418-1.81-5.219-5.218l.042.084Z"/>
    <path fill="currentColor"
          d="M48.077 48.176c16.498-.505 32.954-.674 49.453-.505 2.02 0 3.661 1.683 3.661 3.703 0 2.02-1.641 3.62-3.662 3.662-16.498.168-32.954 0-49.452-.505-3.998-.127-3.998-6.187 0-6.313v-.042Z"/>
</svg>