<svg xmlns="http://www.w3.org/2000/svg" viewBox="0 0 105 105" fill="none">
    <path fill="currentColor"
          d="M28.917 77.119c-5.504-5.504-9.248-12.766-10.285-20.796-1.985-16.194 6.676-31.892 21.156-38.207a4.029 4.029 0 0 1 4.375.812c1.128 1.128 1.489 2.887.812 4.375-1.533 3.519-2.255 8.165-2.03 13.398.632 14.21 12.135 25.757 26.344 26.344 5.188.225 9.88-.497 13.398-2.03a4.029 4.029 0 0 1 4.375.812c1.173 1.127 1.489 2.887.812 4.375-6.315 14.48-22.013 23.186-38.207 21.156-7.985-.992-15.292-4.781-20.796-10.285l.046.046Zm2.3-41.862c-4.601 6.857-6.27 15.789-3.79 24.54 2.482 8.75 9.835 16.33 18.857 18.855 9.021 2.526 17.682.767 24.539-3.789 1.714-1.128.992-3.834-1.038-3.88h-.315c-18.09-.495-33.832-16.239-34.373-34.372v-.316c-.046-2.03-2.752-2.752-3.88-1.038Z"/>
</svg>