<svg xmlns="http://www.w3.org/2000/svg" viewBox="0 0 105 105" fill="none">
    <path fill="currentColor"
          d="M89.64 24.377c-4.156-.236-8.264-.472-12.372-.614-1.463-3.447-4.863-5.855-8.83-5.855-3.966 0-7.224 2.267-8.735 5.572-14.213-.142-29.748 0-42.78.897a3.11 3.11 0 0 0-2.928 2.928c-.142 1.7 1.18 3.21 2.927 3.305 6.044.378 12.088.661 18.18.756 7.602.141 16.054.236 24.6.141a9.58 9.58 0 0 0 8.736 5.572c3.872 0 7.367-2.408 8.83-5.855 4.25-.142 8.453-.378 12.372-.614a3.11 3.11 0 0 0 2.927-2.927c.095-1.748-1.227-3.211-2.927-3.306Zm-18.7 3.117a2.52 2.52 0 0 1-2.502 2.502c-1.37 0-2.55-1.133-2.55-2.502 0-1.37 1.134-2.503 2.55-2.503 1.417 0 2.503 1.086 2.503 2.503ZM89.64 48.6a471.56 471.56 0 0 0-18.18-.756c-7.65-.141-16.149-.236-24.695-.141-1.464-3.306-4.817-5.572-8.641-5.572-3.825 0-7.367 2.408-8.83 5.855-4.25.142-8.452.378-12.372.614a3.11 3.11 0 0 0-2.927 2.927c-.142 1.748 1.18 3.211 2.927 3.353 4.108.236 8.217.425 12.325.567 1.463 3.447 4.91 5.902 8.877 5.902 3.966 0 7.177-2.266 8.688-5.572 14.213.095 29.795-.047 42.828-.897 1.558-.094 2.833-1.37 2.927-2.975.095-1.7-1.227-3.21-2.927-3.305Zm-49.014 3.163a2.52 2.52 0 0 1-2.502 2.503 2.52 2.52 0 0 1-2.503-2.502c0-1.37 1.133-2.55 2.503-2.55 1.369 0 2.502 1.133 2.502 2.55ZM89.64 72.823a358.268 358.268 0 0 0-12.324-.52c-1.464-3.494-4.864-5.95-8.878-5.95-4.013 0-7.224 2.267-8.735 5.572-14.213-.094-29.748.048-42.78.898-1.559.094-2.834 1.369-2.928 2.974-.142 1.7 1.18 3.211 2.927 3.306 6.044.377 12.088.614 18.18.755 7.602.142 16.054.236 24.6.142a9.58 9.58 0 0 0 8.736 5.572c3.872 0 7.367-2.409 8.83-5.856 4.25-.141 8.453-.377 12.372-.613a3.148 3.148 0 0 0 2.927-2.928 3.194 3.194 0 0 0-2.927-3.352Zm-18.7 3.163a2.52 2.52 0 0 1-2.502 2.503c-1.37 0-2.55-1.133-2.55-2.503s1.134-2.55 2.55-2.55c1.417 0 2.503 1.134 2.503 2.55Z"/>
</svg>