<svg xmlns="http://www.w3.org/2000/svg" viewBox="0 0 105 105" fill="none">
    <path stroke="currentColor" stroke-width="6"
          d="M52.062 33.858c5.733 0 10.38-4.647 10.38-10.38 0-5.733-4.647-10.38-10.38-10.38-5.733 0-10.38 4.647-10.38 10.38 0 5.733 4.647 10.38 10.38 10.38Z"/>
    <path fill="currentColor"
          d="M52.093 79.114c-2.206.088-4.235 1.279-5.426 3.132-.132.176-.22.352-.309.529-1.632 2.646-3.837 4.587-6.44 5.734a14.243 14.243 0 0 1-5.91 1.28c-1.853 0-3.794-.75-5.735-2.162-6.263-4.676-8.248-13.189-4.675-20.29 5.205-10.41 15.88-27.878 28.804-27.878 12.924 0 23.598 17.467 28.803 27.877 3.485 6.926 1.632 15.35-4.41 20.07-2.074 1.588-4.103 2.426-6.044 2.426-1.94 0-4.058-.44-5.91-1.279-2.647-1.19-4.808-3.132-6.352-5.602-.177-.352-.31-.529-.397-.705a6.698 6.698 0 0 0-5.426-3.132m.133-7.675c1.896.044 3.749.485 5.513 1.279.882.397 1.765.926 2.559 1.5 1.543 1.102 2.779 2.514 3.793 4.102.177.353.309.53.397.706a6.719 6.719 0 0 0 5.69 3.131 6.673 6.673 0 0 0 4.764-1.985c.132-.132.309-.352.573-.838 1.06-1.985 1.103-4.455.133-6.572C68.854 56.75 60.827 48.634 52.4 48.634c-5.866 0-14.82 4.279-23.995 24.569a6.307 6.307 0 0 0 .397 5.999c1.102 1.808 2.955 2.867 5.028 2.955 2.559 0 4.676-1.19 5.911-3.132.132-.176.22-.308.265-.485 1.102-1.808 2.382-3.176 3.881-4.278a14.934 14.934 0 0 1 2.559-1.5c1.72-.794 3.573-1.191 5.47-1.28h.837l.044-.043Z"/>
    <path fill="currentColor"
          d="m46.667 82.246.8.6.022-.03.02-.03-.842-.54Zm-.309.529.852.525.023-.038.02-.04-.895-.447Zm-6.44 5.734-.403-.915-.009.004.412.911Zm-11.645-.882-.598.801.01.008.588-.809Zm-4.675-20.29.893.449.001-.002-.894-.448Zm57.607 0-.894.447.001.002.893-.45Zm-4.41 20.07.607.793.008-.005-.616-.789ZM64.84 88.552l.412-.91-.002-.002-.41.912Zm-6.352-5.602-.895.448.021.042.026.04.848-.53Zm-.397-.705.894-.448-.022-.043-.025-.041-.847.532Zm-5.294-10.807.024-1-.428-.01-.303.302.707.708Zm8.073 2.779-.586.81.004.003.582-.813Zm3.793 4.102.894-.447-.023-.047-.028-.045-.843.539Zm.397.706-.894.447.023.046.027.043.844-.537Zm11.027.308.878.48.005-.01-.883-.47Zm.133-6.572.909-.417v-.001l-.91.418Zm-47.815.441.91.414v-.002l-.91-.412Zm.397 5.999.854-.52-.005-.008-.005-.008-.844.536Zm5.028 2.955-.042 1h.042v-1Zm5.911-3.132-.8-.6-.023.031-.02.033.843.536Zm.265-.485-.854-.52-.08.13-.037.148.97.242Zm3.881-4.278-.585-.811-.007.005.592.806Zm2.559-1.5.41.912.009-.004-.42-.908Zm5.47-1.28v-1h-.024l-.023.002.046.999Zm.837 0v1h.415l.293-.292-.708-.707Zm-.701 6.633c-2.54.101-4.864 1.47-6.227 3.59l1.682 1.081c1.02-1.585 2.754-2.598 4.625-2.673l-.08-1.998Zm-6.186 3.53c-.194.259-.318.513-.403.683l1.789.894c.091-.183.143-.282.214-.376l-1.6-1.2Zm-.36.605c-1.532 2.486-3.587 4.284-5.992 5.344l.807 1.83c2.8-1.234 5.156-3.317 6.888-6.124l-1.703-1.05Zm-6 5.348c-1.726.78-3.571 1.19-5.5 1.19v2c2.219 0 4.344-.472 6.324-1.368l-.825-1.822Zm-5.5 1.19c-1.578 0-3.317-.64-5.145-1.97l-1.177 1.618c2.053 1.493 4.196 2.352 6.323 2.352v-2Zm-5.135-1.962c-5.87-4.381-7.74-12.365-4.38-19.04l-1.788-.899c-3.787 7.528-1.687 16.57 4.971 21.541l1.197-1.602Zm-4.38-19.042C27.08 62.61 31.005 55.727 35.86 50.15c4.886-5.612 10.53-9.692 16.542-9.692v-2c-6.912 0-13.066 4.654-18.05 10.378-5.015 5.76-9.03 12.816-11.648 18.052l1.79.895Zm27.91-27.325c6.011 0 11.656 4.08 16.542 9.692 4.854 5.576 8.78 12.46 11.367 17.633l1.789-.895c-2.619-5.236-6.633-12.291-11.648-18.052-4.984-5.724-11.138-10.378-18.05-10.378v2Zm27.91 27.327c3.274 6.506 1.528 14.41-4.133 18.832l1.23 1.577c6.426-5.018 8.385-13.964 4.69-21.308l-1.787.899Zm-4.126 18.827c-1.968 1.507-3.788 2.22-5.435 2.22v2c2.235 0 4.473-.964 6.651-2.633l-1.216-1.587Zm-5.435 2.22c-1.8 0-3.777-.412-5.498-1.19l-.825 1.821a15.707 15.707 0 0 0 6.323 1.368v-2Zm-5.5-1.192c-2.457-1.105-4.47-2.908-5.914-5.22l-1.696 1.06c1.643 2.63 3.953 4.708 6.79 5.984l.82-1.824Zm-5.868-5.137a6.963 6.963 0 0 0-.268-.486c-.082-.136-.107-.176-.129-.22l-1.789.895c.067.133.151.269.203.354.059.099.122.207.194.352l1.79-.895Zm-.444-.79a7.697 7.697 0 0 0-6.233-3.6l-.08 1.999a5.698 5.698 0 0 1 4.619 2.664l1.694-1.063Zm-6.164-9.276c1.755.041 3.476.449 5.127 1.192l.82-1.824c-1.878-.845-3.861-1.32-5.9-1.367l-.047 2Zm5.127 1.192c.81.364 1.634.857 2.383 1.398l1.171-1.621a15.93 15.93 0 0 0-2.733-1.601l-.821 1.824Zm2.387 1.401c1.42 1.014 2.571 2.323 3.532 3.827l1.686-1.077c-1.068-1.671-2.386-3.185-4.055-4.377l-1.163 1.627Zm3.48 3.736c.105.208.196.365.27.486.08.136.106.176.128.22l1.788-.895c-.066-.133-.15-.269-.202-.354a4.979 4.979 0 0 1-.195-.351l-1.788.894Zm.448.795a7.719 7.719 0 0 0 6.534 3.595v-2a5.719 5.719 0 0 1-4.846-2.668l-1.688 1.073Zm6.534 3.595a7.673 7.673 0 0 0 5.471-2.278l-1.414-1.414a5.673 5.673 0 0 1-4.057 1.692v2Zm5.471-2.278c.223-.222.452-.53.744-1.066l-1.755-.957c-.238.434-.36.567-.403.61l1.414 1.413Zm.749-1.074c1.213-2.274 1.253-5.073.159-7.46l-1.818.834c.847 1.848.799 3.989-.106 5.685l1.765.94Zm.158-7.461c-3.708-8.06-7.615-14.208-11.71-18.353-4.1-4.153-8.455-6.357-13.017-6.357v2c3.862 0 7.734 1.853 11.595 5.762 3.867 3.916 7.657 9.832 11.315 17.784l1.817-.836Zm-24.728-24.71c-6.464 0-15.676 4.743-24.906 25.157l1.822.824c9.119-20.167 17.816-23.981 23.085-23.981v-2ZM27.496 72.789a7.307 7.307 0 0 0 .463 6.948l1.69-1.07a5.307 5.307 0 0 1-.332-5.05l-1.82-.828Zm.454 6.934c1.28 2.1 3.44 3.331 5.84 3.433l.085-1.998c-1.747-.074-3.292-.96-4.218-2.477l-1.707 1.042Zm5.882 3.434c2.888 0 5.33-1.355 6.755-3.595l-1.688-1.073c-1.045 1.642-2.838 2.668-5.067 2.668v2Zm6.711-3.531c.14-.187.338-.457.435-.843l-1.94-.485a.106.106 0 0 1 .004-.015l-.002.004a2.89 2.89 0 0 1-.097.139l1.6 1.2Zm.318-.565c1.037-1.7 2.228-2.97 3.62-3.994l-1.184-1.611c-1.606 1.181-2.974 2.646-4.143 4.564l1.707 1.041Zm3.614-3.989a13.925 13.925 0 0 1 2.383-1.398l-.82-1.824a15.93 15.93 0 0 0-2.734 1.601l1.17 1.621Zm2.392-1.402c1.586-.732 3.309-1.105 5.097-1.188l-.093-1.998c-2.005.093-3.988.514-5.842 1.37l.838 1.816Zm5.05-1.187h.838v-2h-.838v2Zm1.546-.293.044-.044-1.415-1.415-.044.045 1.415 1.414Z"
    />
</svg>