<svg xmlns="http://www.w3.org/2000/svg" viewBox="0 0 105 105" fill="none">
    <path stroke="currentColor" stroke-miterlimit="10" stroke-width="6.75"
          d="M83.971 70.934c-2.481-2.5-8.49-6.149-11.406-7.619-3.797-1.912-4.11-2.069-7.094.149-1.99 1.48-3.314 2.8-5.644 2.304-2.33-.497-7.392-3.298-11.825-7.717-4.433-4.418-7.398-9.628-7.896-11.95-.498-2.321.845-3.629 2.311-5.624 2.066-2.812 1.91-3.281.144-7.078-1.377-2.953-5.132-8.906-7.641-11.374-2.684-2.652-2.684-2.183-4.414-1.464a25.03 25.03 0 0 0-4.036 2.151c-2.5 1.661-3.888 3.04-4.858 5.114-.97 2.073-1.406 6.934 3.605 16.037 5.01 9.103 8.526 13.757 15.803 21.013 7.277 7.256 12.872 11.157 21.052 15.745 10.12 5.666 14 4.562 16.08 3.593 2.08-.968 3.466-2.343 5.13-4.843a24.852 24.852 0 0 0 2.156-4.031c.72-1.724 1.19-1.724-1.467-4.407Z"/>
</svg>