<svg xmlns="http://www.w3.org/2000/svg" viewBox="0 0 105 105" fill="none">
    <path fill="currentColor"
          d="M70.49 64.475c-2.685 0-5.328-.62-7.764-1.817-5.493 2.23-12.018 2.395-17.717.33a19.165 19.165 0 0 1-7.475 1.487C26.755 64.475 18 55.72 18 44.94c0-9.003 6.277-16.85 14.909-18.956A24.73 24.73 0 0 1 53.434 15c10.2 0 19.203 6.153 22.961 15.528C83.21 32.965 88 39.613 88 47.006c0 9.622-7.847 17.469-17.51 17.469Zm-7.6-9.457c.662 0 1.364.206 1.942.578a10.625 10.625 0 0 0 5.658 1.652c5.699 0 10.283-4.584 10.283-10.242 0-4.75-3.345-8.962-7.97-9.994-1.24-.29-2.272-1.198-2.644-2.437-2.312-7.35-9.044-12.307-16.725-12.307-6.236 0-12.06 3.387-15.157 8.797-.537.95-1.528 1.61-2.602 1.776-5.946.867-10.448 6.112-10.448 12.141 0 6.773 5.534 12.307 12.307 12.307a11.96 11.96 0 0 0 5.658-1.404 3.59 3.59 0 0 1 3.18-.124c4.666 2.106 10.365 1.94 14.867-.33a3.726 3.726 0 0 1 1.652-.372v-.041ZM37.865 74.303l-3.882 7.351c-2.643 4.79-9.829.991-7.35-3.882 0-.371 5.822-6.566 6.194-7.02 2.395-2.726 6.773.413 5.08 3.551h-.042ZM55.54 81.697l-3.882 7.35c-2.643 4.791-9.83.992-7.351-3.881 0-.372 5.823-6.566 6.194-7.02 2.396-2.726 6.773.412 5.08 3.55h-.041ZM74.66 74.303l-3.882 7.351c-2.643 4.79-9.829.991-7.35-3.882 0-.371 5.822-6.566 6.194-7.02 2.395-2.726 6.773.413 5.08 3.551h-.042Z"/>
</svg>