<svg xmlns="http://www.w3.org/2000/svg" viewBox="0 0 105 105" fill="none">
    <path fill="currentColor"
          d="M49.798 89.921c-7.762-3.524-12.815-12.124-16.493-20.483-.492-1.117.984-2.045 1.78-1.12 4.214 4.889 8.943 10.53 14.095 14.418a5.337 5.337 0 0 0 6.429 0c5.153-3.89 9.882-9.532 14.097-14.423.797-.925 2.272.003 1.78 1.12-3.678 8.36-8.736 16.967-16.496 20.49a6.287 6.287 0 0 1-5.192 0v-.002Z"/>
    <path fill="currentColor"
          d="M19.82 72.988c-2.084-8.267 1.49-17.578 5.731-25.667.567-1.082 2.213-.507 1.987.692-1.196 6.343-2.658 13.557-2.485 20.009a5.338 5.338 0 0 0 4.008 5.027c6.254 1.604 13.616 1.784 20.066 2.028 1.22.047 1.414 1.78.234 2.092-8.828 2.337-18.712 3.748-26.304-.122a6.293 6.293 0 0 1-3.238-4.06h.002Z"/>
    <path fill="currentColor"
          d="M14.379 38.997c5.162-6.783 14.67-9.796 23.64-11.523 1.199-.23 1.776 1.414.697 1.985-5.704 3.02-12.255 6.375-17.193 10.533a5.339 5.339 0 0 0-1.431 6.27c2.647 5.888 7.094 11.756 10.926 16.952.724.984-.51 2.215-1.489 1.487-7.332-5.446-14.598-12.292-16.305-20.642a6.288 6.288 0 0 1 1.156-5.062h-.002Z"/>
    <path fill="currentColor"
          d="M37.556 13.546c8.522-.192 16.807 5.363 23.748 11.3.928.793.002 2.269-1.117 1.781-5.918-2.577-12.626-5.607-18.955-6.875a5.335 5.335 0 0 0-5.792 2.79c-2.954 5.74-4.769 12.876-6.443 19.112-.317 1.178-2.048.983-2.091-.238-.314-9.128.51-19.076 5.972-25.617a6.291 6.291 0 0 1 4.678-2.253Z"/>
    <path fill="currentColor"
          d="M71.905 15.8c5.464 6.543 6.284 16.484 5.972 25.612-.042 1.22-1.775 1.416-2.09.237-1.674-6.234-3.489-13.368-6.443-19.106a5.338 5.338 0 0 0-5.793-2.79c-6.331 1.27-13.04 4.301-18.96 6.879-1.119.488-2.045-.988-1.119-1.782 6.943-5.937 15.236-11.497 23.755-11.304a6.291 6.291 0 0 1 4.678 2.253v.001Z"/>
    <path fill="currentColor"
          d="M91.561 44.06c-1.708 8.352-8.968 15.192-16.3 20.639-.98.728-2.213-.503-1.49-1.486 3.829-5.195 8.276-11.061 10.921-16.95a5.334 5.334 0 0 0-1.431-6.268c-4.94-4.158-11.492-7.514-17.2-10.533-1.078-.57-.502-2.216.696-1.985C75.725 29.202 85.243 32.218 90.404 39a6.293 6.293 0 0 1 1.156 5.062l.001-.001Z"/>
    <path fill="currentColor"
          d="M81.724 77.049c-7.594 3.871-17.469 2.458-26.298.123-1.18-.313-.987-2.046.233-2.092 6.45-.246 13.808-.426 20.062-2.03a5.337 5.337 0 0 0 4.008-5.027c.171-6.453-1.29-13.67-2.488-20.013-.226-1.2 1.419-1.774 1.987-.694 4.242 8.088 7.818 17.408 5.735 25.672a6.289 6.289 0 0 1-3.238 4.059l-.001.002Z"/>
    <path fill="currentColor"
          d="M52.393 66.479c-8.825 0-16.003-7.179-16.003-16.004 0-8.825 7.178-16.003 16.003-16.003s16.004 7.178 16.004 16.003S61.218 66.48 52.393 66.48Zm0-25.867c-5.438 0-9.864 4.423-9.864 9.863 0 5.44 4.424 9.864 9.864 9.864s9.864-4.424 9.864-9.864-4.424-9.864-9.864-9.864Z"/>
</svg>