<svg xmlns="http://www.w3.org/2000/svg" viewBox="0 0 105 105" fill="none">
    <path fill="currentColor"
          d="M84.806 27.86c-3.927-3.83-9.912-7.565-14.126-10.055-2.825-1.58-5.937-2.394-9.241-2.394h-.048c-2.586.048-6.177.048-8.667 0-2.394.048-5.937.048-8.619 0-3.304 0-6.368.814-9.241 2.394-4.31 2.442-10.295 6.177-14.222 10.056-1.628 1.58-2.442 3.974-2.059 6.368 2.586 17.095 11.828 33.47 28.06 49.943 1.628 1.628 3.783 2.49 6.081 2.49h.048c2.298 0 4.453-.91 6.081-2.49 16.28-16.52 25.474-32.944 28.012-49.99.383-2.347-.431-4.741-2.059-6.321ZM48.702 74.452C38.407 63.007 31.703 51.755 28.447 40.358c-1.149-3.974.383-8.283 3.783-10.63 1.963-1.34 4.214-2.73 6.656-4.166 1.484-.814 3.017-1.197 4.788-1.197h18.148c1.676 0 3.304.431 4.788 1.245a94.91 94.91 0 0 1 6.608 4.118c3.4 2.346 4.884 6.608 3.783 10.582-3.256 11.397-9.912 22.697-20.255 34.093-2.154 2.347-5.937 2.347-8.092 0l.048.048Z"/>
</svg>