<svg xmlns="http://www.w3.org/2000/svg" viewBox="0 0 105 105" fill="none">
    <path fill="currentColor"
          d="m33.485 46.573-5.89-3.487-7.372-4.27a4.364 4.364 0 0 1-2.184-3.8c0-.745.195-1.49.585-2.194.78-1.332 2.262-2.194 3.784-2.194.74 0 1.482.196 2.145.588l7.372 4.27 6.046 3.565.078.352a7.87 7.87 0 0 1 .039 2.35c0 .589-.234 1.255-.624 1.96-.39.666-.898 1.175-1.444 1.606-.624.43-1.287.862-1.95 1.136l-.156.078h-.429v.04ZM22.369 74.389a4.338 4.338 0 0 1-3.784-2.194A4.402 4.402 0 0 1 18 70.001c0-1.567.858-3.016 2.184-3.8l7.411-4.27 5.89-3.487h.195c1.014.392 1.677.784 2.301 1.215.585.43 1.053.98 1.444 1.567.39.744.585 1.41.624 2.037.078.783.078 1.606-.04 2.311l-.077.353-6.007 3.526-7.45 4.31a4.212 4.212 0 0 1-2.145.587l.039.039ZM52.48 35.056c-.702 0-1.365-.157-2.067-.431-.78-.353-1.404-.784-1.95-1.136l-.312-.235v-15.71a4.37 4.37 0 0 1 4.368-4.388c2.419 0 4.33 1.959 4.33 4.388v15.592l-.312.235a8.75 8.75 0 0 1-1.99 1.215 5.138 5.138 0 0 1-2.067.43v.04ZM52.52 91.86a4.37 4.37 0 0 1-4.37-4.388v-15.67l.313-.235a8.284 8.284 0 0 1 1.95-1.136c.663-.313 1.365-.431 2.067-.431a5.43 5.43 0 0 1 2.068.43c.702.314 1.404.706 2.028 1.215l.312.235v15.593c0 2.428-1.95 4.387-4.33 4.387h-.038ZM71.008 46.496c-.78-.353-1.443-.705-2.028-1.136a5.744 5.744 0 0 1-1.404-1.528c-.312-.548-.546-1.214-.664-1.998a8.13 8.13 0 0 1 .04-2.39v-.235l.195-.156 5.89-3.487 7.45-4.31a4.213 4.213 0 0 1 2.145-.587c1.56 0 3.003.823 3.783 2.155.39.705.585 1.45.585 2.194a4.446 4.446 0 0 1-2.184 3.8l-7.567 4.387h-.195l-5.656 3.448-.351-.157h-.039ZM82.67 74.387a4.25 4.25 0 0 1-2.184-.587L67.38 66.2l-.155-.157-.273-.431a7.866 7.866 0 0 1-.04-2.35c.117-.745.313-1.372.624-1.96.39-.666.898-1.175 1.444-1.606.624-.43 1.248-.822 2.028-1.175l.351-.157 5.85 3.487.196.078 7.41 4.27A4.364 4.364 0 0 1 87 70c0 .745-.195 1.528-.585 2.194-.78 1.332-2.184 2.194-3.745 2.194ZM52.48 66.906c-1.013 0-2.027-.118-2.964-.314-.39-.078-.78-.156-1.17-.313a7.541 7.541 0 0 1-1.716-.666c-.819-.314-1.677-.823-2.535-1.45-.585-.391-1.131-.9-1.483-1.253-.312-.235-.623-.549-.819-.901-1.326-1.41-2.34-3.173-2.964-5.054a10.333 10.333 0 0 1-.312-1.175 8.687 8.687 0 0 1-.312-1.802c0-.51-.078-1.019-.078-1.489 0-.47 0-.98.078-1.45.078-.666.156-1.292.351-1.92.039-.352.156-.743.312-1.135.585-1.88 1.6-3.604 3.003-5.132.157-.235.468-.549.82-.862.39-.392.897-.823 1.443-1.175a11.086 11.086 0 0 1 2.535-1.45c.585-.313 1.17-.51 1.755-.666a7.267 7.267 0 0 1 1.092-.313 13.954 13.954 0 0 1 2.926-.314c1.092 0 2.106.118 3.003.353.351.078.741.157 1.131.274.585.157 1.17.353 1.717.666.975.431 1.794.94 2.535 1.489a7.625 7.625 0 0 1 1.482 1.253c.234.196.507.47.78.784 1.287 1.41 2.34 3.212 2.965 5.132.117.313.234.705.312 1.136.156.549.273 1.175.312 1.841 0 .51.078 1.019.078 1.489 0 .47 0 .98-.078 1.45-.078.666-.156 1.292-.351 1.92a4.269 4.269 0 0 1-.312 1.096 13.819 13.819 0 0 1-2.965 5.132c-.195.274-.507.549-.819.784-.35.391-.858.822-1.443 1.214a12.049 12.049 0 0 1-2.535 1.489c-.508.274-1.132.47-1.756.666-.35.117-.74.196-1.13.274-.859.235-1.873.353-2.965.353l.078.039Zm0-22.135c-.896 0-1.754.157-2.534.431-.39.157-.742.275-.976.431-.195.118-.35.196-.468.274-.39.236-.624.431-.975.745-1.365 1.136-2.262 2.703-2.613 4.427-.04.352-.078.783-.117 1.175v.588c0 .352.078.744.117 1.136a7.763 7.763 0 0 0 2.613 4.387c.351.314.624.51.858.666.234.157.39.275.546.353.312.157.624.313 1.015.43.819.314 1.638.432 2.535.432.897 0 1.755-.157 2.574-.431.351-.118.663-.274.975-.431.195-.078.312-.196.468-.313.351-.196.585-.392.937-.706 1.365-1.136 2.262-2.742 2.613-4.466.039-.352.078-.744.117-1.136v-.587c0-.353-.078-.706-.117-1.097-.351-1.724-1.248-3.291-2.614-4.427a7.446 7.446 0 0 0-.858-.666c-.273-.157-.429-.274-.546-.353a5.623 5.623 0 0 0-1.014-.43c-.819-.314-1.677-.432-2.574-.432h.039Z"/>
</svg>