<svg xmlns="http://www.w3.org/2000/svg" viewBox="0 0 105 105" fill="none">
    <path fill="currentColor"
          d="M51.962 87.65c-15.658 0-25.766-10.108-25.766-25.722s15.012-34.584 21.507-42.154c.473-.603 1.161-1.119 1.936-1.463 1.42-.688 3.226-.688 4.688 0 .689.301 1.334.817 1.893 1.42 6.452 7.57 21.507 26.798 21.507 42.11 0 15.314-10.108 25.723-25.723 25.723l-.042.087Zm2.924-57.553a3.63 3.63 0 0 0-5.806 0c-8.044 10.41-15.314 22.97-15.314 31.83 0 11.4 6.797 18.196 18.239 18.196 11.441 0 18.195-6.796 18.195-18.195 0-8.861-7.27-21.421-15.314-31.83Z"/>
    <path fill="currentColor"
          d="M68.608 63.132c.99 7.785-6.452 15.184-14.195 14.194-1.763-.172-3.054-1.806-2.881-3.57.172-1.548 1.419-2.71 2.882-2.882 4.129-.774 7.14-3.871 7.828-8.044.645-3.613 6.065-3.355 6.41.259l-.044.043Z"/>
</svg>