<svg xmlns="http://www.w3.org/2000/svg" viewBox="0 0 105 105" fill="none">
    <path fill="currentColor"
          d="M87.863 42.212c-20.389-15.712-49.967-15.712-70.314 0-2.462 1.846-5.539-1.6-3.405-3.815 19.773-21.497 57.392-21.497 77.165 0 2.133 2.174-1.026 5.702-3.405 3.815h-.041ZM65.67 66.949c-4.349-2.215-8.615-3.405-13.005-3.405-4.43 0-8.738 1.23-13.086 3.446a2.611 2.611 0 0 1-3.528-1.149 2.652 2.652 0 0 1 .246-2.748c3.651-4.923 10.05-7.795 16.41-7.754 6.317 0 12.717 2.83 16.409 7.754 1.723 2.174-1.067 5.25-3.405 3.815l-.041.04Z"/>
    <path fill="currentColor"
          d="M77.361 55.133c-14.81-10.871-34.542-10.871-49.351 0-2.338 1.805-5.456-1.559-3.487-3.733 6.728-8.04 17.476-12.676 28.183-12.676S74.161 43.359 80.89 51.4c1.97 2.215-1.19 5.538-3.487 3.733h-.04ZM52.706 85.29c-1.23 0-2.42-.37-3.405-1.026-1.025-.656-1.805-1.641-2.256-2.749a6.614 6.614 0 0 1-.37-3.569 6.252 6.252 0 0 1 1.683-3.159 6.252 6.252 0 0 1 3.159-1.681 5.948 5.948 0 0 1 3.569.369 6.165 6.165 0 0 1 2.748 2.256c.656 1.026 1.026 2.215 1.026 3.405 0 1.64-.657 3.2-1.805 4.348a6.147 6.147 0 0 1-4.349 1.806Z"/>
</svg>